HIERARCHY
ROOT Hips
{
	OFFSET 0.000000 83.214638 0.000000
	CHANNELS 6 Xposition Yposition Zposition Xrotation Yrotation Zrotation
	JOINT Pelvis
	{
		OFFSET 0.000000 0.000000 0.000000
		CHANNELS 3 Xrotation Yrotation Zrotation
		JOINT LeftUpLeg
		{
			OFFSET 8.479700 -4.795502 -0.379100
			CHANNELS 3 Xrotation Yrotation Zrotation
			JOINT LeftLeg
			{
				OFFSET 0.024144 -32.555107 0.112900
				CHANNELS 3 Xrotation Yrotation Zrotation
				JOINT LeftFoot
				{
					OFFSET -0.024144 -32.638630 -3.012600
					CHANNELS 3 Xrotation Yrotation Zrotation
					JOINT LeftToeBase
					{
						OFFSET 0.970200 -13.225400 11.864200
						CHANNELS 3 Xrotation Yrotation Zrotation
						End Site
						{
							OFFSET 0.000000 12.319262 0.000000
						}
					}
					JOINT LFootTongue
					{
						OFFSET 1.142400 -1.059800 6.665200
						CHANNELS 3 Xrotation Yrotation Zrotation
						End Site
						{
							OFFSET 0.000000 12.319262 0.000000
						}
					}
				}
				JOINT LeftPantLeg
				{
					OFFSET 0.918482 -16.533964 -2.284700
					CHANNELS 3 Xrotation Yrotation Zrotation
					End Site
					{
						OFFSET 0.350399 24.744368 0.000000
					}
				}
			}
		}
		JOINT RightUpLeg
		{
			OFFSET -8.479700 -4.795502 -0.379100
			CHANNELS 3 Xrotation Yrotation Zrotation
			JOINT RightLeg
			{
				OFFSET -0.023144 -32.555092 0.112900
				CHANNELS 3 Xrotation Yrotation Zrotation
				JOINT RightFoot
				{
					OFFSET 0.023144 -32.638641 -3.012700
					CHANNELS 3 Xrotation Yrotation Zrotation
					JOINT RightToeBase
					{
						OFFSET -0.970200 -13.225400 11.864200
						CHANNELS 3 Xrotation Yrotation Zrotation
						End Site
						{
							OFFSET 0.000000 12.319244 0.000000
						}
					}
					JOINT RFootTongue
					{
						OFFSET -1.142200 -1.059800 6.665200
						CHANNELS 3 Xrotation Yrotation Zrotation
						End Site
						{
							OFFSET 0.000000 12.319243 0.000000
						}
					}
				}
				JOINT RightPantLeg
				{
					OFFSET -0.919482 -16.533978 -2.284800
					CHANNELS 3 Xrotation Yrotation Zrotation
					End Site
					{
						OFFSET -0.350400 24.744419 0.000000
					}
				}
			}
		}
	}
	JOINT Spine
	{
		OFFSET 0.000000 7.722000 1.166200
		CHANNELS 3 Xrotation Yrotation Zrotation
		JOINT Spine1
		{
			OFFSET 0.000000 12.024101 0.248800
			CHANNELS 3 Xrotation Yrotation Zrotation
			JOINT Spine2
			{
				OFFSET 0.000000 11.502998 -0.491200
				CHANNELS 3 Xrotation Yrotation Zrotation
				JOINT Neck
				{
					OFFSET 0.000000 18.430702 -3.123100
					CHANNELS 3 Xrotation Yrotation Zrotation
					JOINT Head
					{
						OFFSET 0.000000 9.051102 1.034000
						CHANNELS 3 Xrotation Yrotation Zrotation
						JOINT HairB
						{
							OFFSET 0.208400 24.786102 24.822300
							CHANNELS 3 Xrotation Yrotation Zrotation
							End Site
							{
								OFFSET 0.000000 32.263779 0.000000
							}
						}
						JOINT HairA
						{
							OFFSET -7.081100 24.428299 23.196600
							CHANNELS 3 Xrotation Yrotation Zrotation
							End Site
							{
								OFFSET 0.000000 32.263779 0.000000
							}
						}
						JOINT Hat
						{
							OFFSET 16.728800 15.048294 -15.439601
							CHANNELS 3 Xrotation Yrotation Zrotation
							End Site
							{
								OFFSET 0.000000 32.263779 0.000000
							}
						}
					}
				}
				JOINT LeftShoulder
				{
					OFFSET 6.197800 13.665199 -4.064700
					CHANNELS 3 Xrotation Yrotation Zrotation
					JOINT LeftArm
					{
						OFFSET 7.778100 -0.187103 -1.709300
						CHANNELS 3 Xrotation Yrotation Zrotation
						JOINT LeftForeArm
						{
							OFFSET 22.049376 0.000000 0.000000
							CHANNELS 3 Xrotation Yrotation Zrotation
							JOINT LeftHand
							{
								OFFSET 23.009392 0.000000 0.000000
								CHANNELS 3 Xrotation Yrotation Zrotation
								JOINT LeftHandThumb1
								{
									OFFSET 3.507191 -2.063065 3.133727
									CHANNELS 3 Xrotation Yrotation Zrotation
									JOINT LeftHandThumb2
									{
										OFFSET 3.101337 -1.790558 1.790558
										CHANNELS 3 Xrotation Yrotation Zrotation
										JOINT LeftHandThumb3
										{
											OFFSET 3.058640 -1.765907 1.765906
											CHANNELS 3 Xrotation Yrotation Zrotation
											End Site
											{
												OFFSET -0.415260 3.926476 -0.049563
											}
										}
									}
								}
								JOINT LeftHandIndex1
								{
									OFFSET 11.334419 -0.901459 3.706815
									CHANNELS 3 Xrotation Yrotation Zrotation
									JOINT LeftHandIndex2
									{
										OFFSET 3.283112 0.000000 0.000000
										CHANNELS 3 Xrotation Yrotation Zrotation
										JOINT LeftHandIndex3
										{
											OFFSET 3.323853 0.000000 0.000000
											CHANNELS 3 Xrotation Yrotation Zrotation
											End Site
											{
												OFFSET -1.135597 3.097809 0.402452
											}
										}
									}
								}
								JOINT LeftHandMiddle1
								{
									OFFSET 11.335861 0.000000 0.000000
									CHANNELS 3 Xrotation Yrotation Zrotation
									JOINT LeftHandMiddle2
									{
										OFFSET 3.410492 0.000000 0.000000
										CHANNELS 3 Xrotation Yrotation Zrotation
										JOINT LeftHandMiddle3
										{
											OFFSET 3.312172 0.000000 0.000000
											CHANNELS 3 Xrotation Yrotation Zrotation
											End Site
											{
												OFFSET -1.150200 3.080154 0.400270
											}
										}
									}
								}
								JOINT LeftHandRing1
								{
									OFFSET 11.514786 -0.013176 -3.003090
									CHANNELS 3 Xrotation Yrotation Zrotation
									JOINT LeftHandRing2
									{
										OFFSET 3.053307 0.000000 0.000000
										CHANNELS 3 Xrotation Yrotation Zrotation
										JOINT LeftHandRing3
										{
											OFFSET 3.295807 0.000000 0.000000
											CHANNELS 3 Xrotation Yrotation Zrotation
											End Site
											{
												OFFSET -1.281006 3.013344 0.375733
											}
										}
									}
								}
								JOINT LeftHandPinky1
								{
									OFFSET 10.518692 -0.960396 -5.730441
									CHANNELS 3 Xrotation Yrotation Zrotation
									JOINT LeftHandPinky2
									{
										OFFSET 2.861649 0.000000 0.000000
										CHANNELS 3 Xrotation Yrotation Zrotation
										JOINT LeftHandPinky3
										{
											OFFSET 2.863380 0.000000 0.000000
											CHANNELS 3 Xrotation Yrotation Zrotation
											End Site
											{
												OFFSET -0.843597 2.711159 0.369971
											}
										}
									}
								}
							}
							JOINT LSleeve
							{
								OFFSET 6.676277 -0.344902 -1.011730
								CHANNELS 3 Xrotation Yrotation Zrotation
								End Site
								{
									OFFSET 0.000000 14.885353 0.000000
								}
							}
						}
					}
				}
				JOINT RightShoulder
				{
					OFFSET -6.197800 13.665199 -4.064700
					CHANNELS 3 Xrotation Yrotation Zrotation
					JOINT RightArm
					{
						OFFSET -7.778100 -0.187103 -1.709300
						CHANNELS 3 Xrotation Yrotation Zrotation
						JOINT RightForeArm
						{
							OFFSET -22.049376 0.000000 0.000000
							CHANNELS 3 Xrotation Yrotation Zrotation
							JOINT RightHand
							{
								OFFSET -23.009392 0.000000 0.000000
								CHANNELS 3 Xrotation Yrotation Zrotation
								JOINT RightHandThumb1
								{
									OFFSET -3.507191 -2.063065 3.133727
									CHANNELS 3 Xrotation Yrotation Zrotation
									JOINT RightHandThumb2
									{
										OFFSET -3.101337 -1.790558 1.790558
										CHANNELS 3 Xrotation Yrotation Zrotation
										JOINT RightHandThumb3
										{
											OFFSET -3.058640 -1.765907 1.765906
											CHANNELS 3 Xrotation Yrotation Zrotation
											End Site
											{
												OFFSET 0.415260 3.926476 -0.049563
											}
										}
									}
								}
								JOINT RightHandIndex1
								{
									OFFSET -11.334419 -0.901459 3.706815
									CHANNELS 3 Xrotation Yrotation Zrotation
									JOINT RightHandIndex2
									{
										OFFSET -3.283112 0.000000 0.000000
										CHANNELS 3 Xrotation Yrotation Zrotation
										JOINT RightHandIndex3
										{
											OFFSET -3.323853 0.000000 0.000000
											CHANNELS 3 Xrotation Yrotation Zrotation
											End Site
											{
												OFFSET 1.135597 3.097809 0.402452
											}
										}
									}
								}
								JOINT RightHandMiddle1
								{
									OFFSET -11.335861 0.000000 0.000000
									CHANNELS 3 Xrotation Yrotation Zrotation
									JOINT RightHandMiddle2
									{
										OFFSET -3.410492 0.000000 0.000000
										CHANNELS 3 Xrotation Yrotation Zrotation
										JOINT RightHandMiddle3
										{
											OFFSET -3.312172 0.000000 0.000000
											CHANNELS 3 Xrotation Yrotation Zrotation
											End Site
											{
												OFFSET 1.150200 3.080154 0.400270
											}
										}
									}
								}
								JOINT RightHandRing1
								{
									OFFSET -11.514786 -0.013176 -3.003090
									CHANNELS 3 Xrotation Yrotation Zrotation
									JOINT RightHandRing2
									{
										OFFSET -3.053307 0.000000 0.000000
										CHANNELS 3 Xrotation Yrotation Zrotation
										JOINT RightHandRing3
										{
											OFFSET -3.295807 0.000000 0.000000
											CHANNELS 3 Xrotation Yrotation Zrotation
											End Site
											{
												OFFSET 1.281006 3.013344 0.375733
											}
										}
									}
								}
								JOINT RightHandPinky1
								{
									OFFSET -10.518692 -0.960396 -5.730441
									CHANNELS 3 Xrotation Yrotation Zrotation
									JOINT RightHandPinky2
									{
										OFFSET -2.861649 0.000000 0.000000
										CHANNELS 3 Xrotation Yrotation Zrotation
										JOINT RightHandPinky3
										{
											OFFSET -2.863380 0.000000 0.000000
											CHANNELS 3 Xrotation Yrotation Zrotation
											End Site
											{
												OFFSET 0.843597 2.711159 0.369971
											}
										}
									}
								}
							}
							JOINT RSleeve
							{
								OFFSET -6.676277 -0.344902 -1.011730
								CHANNELS 3 Xrotation Yrotation Zrotation
								End Site
								{
									OFFSET 0.000000 14.885353 0.000000
								}
							}
						}
					}
				}
				JOINT Backpack
				{
					OFFSET 0.000000 -2.471497 36.677502
					CHANNELS 3 Xrotation Yrotation Zrotation
					End Site
					{
						OFFSET 0.000000 20.427315 0.000000
					}
				}
				JOINT Hood
				{
					OFFSET 0.000000 18.754097 -10.431000
					CHANNELS 3 Xrotation Yrotation Zrotation
					JOINT Hood1
					{
						OFFSET 0.000000 -5.011002 -7.685901
						CHANNELS 3 Xrotation Yrotation Zrotation
						End Site
						{
							OFFSET 0.000000 9.175140 0.000000
						}
					}
				}
				JOINT LHoodieString
				{
					OFFSET 5.250500 16.397697 3.089900
					CHANNELS 3 Xrotation Yrotation Zrotation
					JOINT LHoodieString1
					{
						OFFSET 0.257700 -6.364304 3.694600
						CHANNELS 3 Xrotation Yrotation Zrotation
						JOINT LHoodieString2
						{
							OFFSET 0.000000 -9.643799 2.679100
							CHANNELS 3 Xrotation Yrotation Zrotation
							End Site
							{
								OFFSET 0.000000 10.009018 0.000000
							}
						}
					}
				}
				JOINT RHoodieString
				{
					OFFSET -5.250500 16.397697 3.089900
					CHANNELS 3 Xrotation Yrotation Zrotation
					JOINT RHoodieString1
					{
						OFFSET -0.257700 -6.364304 3.694600
						CHANNELS 3 Xrotation Yrotation Zrotation
						JOINT RHoodieString2
						{
							OFFSET 0.000000 -9.643799 2.679100
							CHANNELS 3 Xrotation Yrotation Zrotation
							End Site
							{
								OFFSET 0.000000 10.009018 0.000000
							}
						}
					}
				}
			}
			JOINT LBackpack_Strap
			{
				OFFSET 15.223200 -7.719803 -6.610900
				CHANNELS 3 Xrotation Yrotation Zrotation
				End Site
				{
					OFFSET 0.000000 16.040596 0.000000
				}
			}
			JOINT RBackpack_Strap
			{
				OFFSET -15.223000 -7.719803 -6.610900
				CHANNELS 3 Xrotation Yrotation Zrotation
				End Site
				{
					OFFSET 0.000000 16.040596 0.000000
				}
			}
		}
	}
	JOINT BoyFacialAnim_Joint
	{
		OFFSET 1.000000 -82.208099 -1.550900
		CHANNELS 3 Xrotation Yrotation Zrotation
		End Site
		{
			OFFSET 0.000000 30.012791 0.000000
		}
	}
}
MOTION
Frames: 5
Frame Time: 0.016667
6.926888 53.655914 93.697220 26.568720 -56.065902 32.888423 0.000002 0.000002 0.000001 -61.803445 -43.585196 31.146619 84.316684 3.512401 -41.609902 -10.546685 -2.589825 -22.949412 -0.000000 0.000003 -0.000000 -0.000000 0.000003 -0.000000 -0.000002 0.000003 0.000000 -85.239497 24.017754 -17.403677 101.533597 6.728829 0.633387 -27.004101 -4.917995 14.732167 0.000000 0.000002 -0.000000 0.000000 0.000002 -0.000000 -0.000002 -0.000001 0.000001 36.076035 -1.659824 -12.464496 -1.957389 5.375157 -0.991199 2.116141 5.078857 -0.821978 -12.375891 22.130629 -4.641756 -6.246895 18.672301 -15.900100 -0.000000 0.000000 -0.000000 -0.000000 0.000000 -0.000000 -0.000000 0.000000 -0.000000 5.941491 -18.519088 -1.957347 -27.184723 20.945579 -31.616362 -81.078341 -81.172598 -70.319912 19.572879 -8.968063 11.330313 -2.637051 -7.745161 8.357717 4.850465 25.883337 0.310217 0.000001 0.000001 0.000000 13.403490 -1.931349 -0.362586 -0.144263 0.314245 -46.537289 -0.000002 0.000000 -0.000005 8.600806 -0.764854 -14.454873 0.337749 0.740998 -48.772926 0.000005 0.000000 0.000000 6.268063 2.785872 -30.963105 0.134946 0.420921 -52.428133 0.000002 0.000000 -0.000002 -5.507713 7.394415 -31.738789 0.325644 0.344502 -72.129270 0.000001 -0.000001 -0.000000 -0.000001 -0.000001 0.000002 0.012695 27.801554 18.707828 -54.993900 -1.387939 14.818753 -31.712865 58.823010 27.684022 29.626711 11.680895 -21.865408 4.362875 -2.376072 -10.417854 6.382030 -22.873385 7.534686 -0.000005 0.000001 -0.000000 12.580755 5.223926 8.328366 -0.320489 -0.269479 55.178530 -0.000000 0.000001 0.000005 6.735569 -0.416823 21.668220 0.630587 -0.710898 59.162723 -0.000001 0.000004 0.000001 3.077466 -6.824881 32.208710 0.532228 -0.321439 64.382183 -0.000002 0.000001 -0.000001 -7.813617 -10.789250 40.442978 0.564482 -0.208639 85.786903 0.000002 0.000001 0.000002 -0.000000 0.000001 -0.000002 -0.000002 -0.000001 0.000000 -0.000002 -0.000001 0.000000 -0.000002 -0.000001 0.000000 -0.000002 -0.000001 0.000000 -0.000002 -0.000001 -0.000001 -0.000000 -0.000002 -0.000000 -0.000002 -0.000001 0.000000 -0.000002 -0.000001 -0.000001 -0.000000 -0.000002 -0.000000 -0.000000 0.000000 -0.000000 -0.000000 0.000000 -0.000000 0.000002 0.000002 0.000001 
7.212933 53.811882 94.562950 28.267136 -56.527062 34.123393 0.000001 0.000001 -0.000000 -61.962151 -43.461583 31.755943 85.389256 3.167182 -42.445480 -11.461822 -2.740559 -22.098257 0.000000 -0.000001 0.000000 0.000000 -0.000001 -0.000000 -0.000000 0.000004 -0.000001 -85.293627 24.440377 -17.572702 100.417182 6.914900 0.647850 -26.486423 -4.555584 15.606376 0.000000 0.000000 0.000000 0.000000 0.000000 0.000000 0.000002 0.000003 -0.000001 35.757843 -1.999449 -13.934428 -2.211909 5.602687 -0.808050 1.905221 5.369616 -0.299749 -12.094913 22.484177 -4.602858 -6.896203 18.777336 -15.089621 0.000003 -0.000000 0.000000 0.000003 -0.000000 0.000000 0.000003 -0.000000 0.000000 6.664366 -18.263926 -2.232492 -27.495671 17.707793 -32.135115 -65.949479 -80.866598 -55.485441 19.983568 -7.423048 10.194810 -2.565566 -7.754358 8.363831 4.988670 26.393936 0.484761 -0.000000 -0.000000 0.000001 13.409938 -1.900504 -2.024955 -0.142136 0.315788 -49.012307 0.000000 -0.000002 -0.000002 8.587739 -0.735816 -16.027775 0.347282 0.750565 -51.229390 0.000002 -0.000000 0.000002 6.254695 2.818112 -32.426043 0.146170 0.429330 -54.763586 -0.000001 0.000001 -0.000002 -5.551649 7.431822 -32.962401 0.336806 0.347429 -74.252496 0.000001 0.000003 0.000002 0.000000 -0.000001 0.000000 0.392902 28.446674 18.972628 -54.816902 -0.739627 15.725245 -32.159522 59.955694 28.371945 30.216545 9.118560 -21.036114 4.934231 -2.758364 -10.624078 6.709299 -23.370548 7.689441 0.000002 0.000000 0.000001 12.835078 4.880010 10.435486 -0.342465 -0.295549 58.867058 -0.000004 0.000001 0.000004 6.540487 -0.366068 24.090057 0.670368 -0.689422 62.625731 0.000003 0.000003 -0.000003 2.533753 -6.923150 34.344397 0.559764 -0.307387 67.256388 0.000001 0.000000 0.000002 -8.870798 -11.299476 42.195806 0.584059 -0.186663 88.957934 -0.000003 0.000002 -0.000006 0.000002 -0.000000 -0.000001 -0.000000 0.000000 -0.000001 -0.000000 0.000000 -0.000001 -0.000000 0.000000 -0.000001 -0.000000 0.000000 -0.000001 -0.000000 0.000000 -0.000002 0.000001 -0.000001 -0.000000 -0.000000 0.000000 -0.000001 -0.000000 0.000000 -0.000002 0.000001 -0.000001 -0.000000 -0.000001 -0.000002 0.000003 -0.000001 -0.000002 0.000003 0.000001 0.000001 -0.000000 
7.359200 54.088837 95.379135 29.319031 -56.776637 35.087908 -0.000000 -0.000002 -0.000001 -61.996739 -43.378265 31.608165 86.205368 3.169753 -43.230269 -12.344874 -2.767185 -21.463347 0.000000 0.000002 -0.000000 0.000000 0.000002 -0.000000 -0.000000 -0.000000 0.000000 -84.843626 24.658241 -18.168959 99.334938 6.978333 0.396975 -26.219648 -4.150347 16.380614 0.000000 -0.000001 -0.000000 0.000000 -0.000001 -0.000000 -0.000000 0.000002 0.000000 35.088382 -2.311481 -15.431252 -2.135782 5.671943 -0.623120 1.911758 5.457654 0.250404 -12.116934 22.696519 -4.358119 -7.303208 18.909092 -14.670555 0.000001 0.000000 0.000000 0.000001 0.000000 0.000000 0.000001 0.000000 0.000000 7.124644 -18.651624 -2.187853 -27.932339 15.768877 -32.151937 -52.503736 -79.963634 -42.362770 19.874063 -6.198309 8.772589 -2.494160 -7.763603 8.369867 5.113627 26.867037 0.645998 0.000001 0.000000 0.000001 13.421738 -1.871646 -3.652795 -0.140171 0.317278 -51.493930 0.000002 0.000002 -0.000001 8.575925 -0.708599 -17.530010 0.357464 0.759474 -53.634289 0.000001 0.000000 0.000002 6.241562 2.849669 -33.783004 0.157187 0.436967 -56.993349 -0.000002 -0.000001 -0.000001 -5.594990 7.468768 -34.051167 0.347441 0.349656 -76.219761 0.000000 0.000002 0.000002 -0.000000 0.000001 0.000003 0.481422 28.460029 19.320845 -54.296247 -0.269323 17.138949 -33.555852 61.774738 30.127223 31.259546 6.241254 -19.766158 5.449424 -3.079956 -10.807723 7.007144 -23.827941 7.829295 0.000002 0.000000 -0.000000 13.115582 4.577880 12.470367 -0.362175 -0.324245 62.492720 -0.000000 -0.000000 0.000004 6.340850 -0.331195 26.374436 0.707221 -0.664510 65.968863 0.000002 -0.000001 0.000001 2.011730 -7.073379 36.304764 0.584411 -0.291951 69.957523 0.000000 -0.000002 0.000000 -9.826581 -11.857206 43.720014 0.600188 -0.164840 91.846380 -0.000001 -0.000000 0.000002 0.000001 0.000001 -0.000001 0.000001 0.000002 0.000000 0.000001 0.000002 0.000000 0.000001 0.000002 0.000000 0.000001 0.000002 0.000000 0.000001 0.000002 -0.000001 0.000001 0.000000 0.000001 0.000001 0.000002 0.000000 0.000001 0.000002 -0.000001 0.000001 0.000000 0.000001 -0.000001 -0.000003 0.000003 -0.000001 -0.000003 0.000003 -0.000000 -0.000002 -0.000001 
7.534996 54.431854 96.139221 29.779758 -56.624461 35.289067 0.000000 0.000000 -0.000000 -62.590419 -43.416432 30.792340 86.742945 3.303967 -43.603190 -12.948818 -2.746218 -20.807570 -0.000000 -0.000002 0.000000 -0.000000 -0.000002 0.000000 0.000001 -0.000002 -0.000001 -84.060654 24.338559 -19.260763 98.152749 6.220033 0.011085 -25.953851 -3.082066 17.451502 0.000000 -0.000000 0.000000 0.000000 -0.000000 0.000000 -0.000001 -0.000001 0.000003 34.198341 -2.484515 -16.000114 -1.873222 5.586115 -0.555359 2.077621 5.368873 0.484105 -12.370054 22.770476 -4.044475 -7.971463 19.199334 -14.250021 0.000000 -0.000000 -0.000000 0.000000 -0.000000 -0.000000 0.000000 -0.000000 -0.000000 6.965520 -19.294369 -2.102323 -28.134852 15.072522 -32.000529 -44.720828 -79.216944 -34.965921 19.735956 -4.859228 6.786330 -2.423051 -7.772817 8.375889 5.223527 27.295340 0.791259 0.000001 0.000000 0.000002 13.438329 -1.845262 -5.224449 -0.138562 0.318796 -53.948860 -0.000003 0.000001 -0.000003 8.565231 -0.683829 -18.940743 0.367954 0.767628 -55.955410 -0.000000 0.000001 0.000002 6.228808 2.879353 -35.013544 0.167720 0.443767 -59.086389 0.000001 0.000000 -0.000002 -5.635497 7.502934 -34.986196 0.357225 0.351385 -78.001252 -0.000003 0.000001 -0.000002 0.000001 0.000003 -0.000001 0.326727 28.032097 19.689714 -54.046071 0.106957 18.102725 -34.543088 63.125585 31.386345 32.050485 4.260136 -17.576655 5.901724 -3.333589 -10.969727 7.271119 -24.239506 7.950930 0.000001 0.000001 -0.000002 13.414732 4.320668 14.409770 -0.379316 -0.354848 66.014898 0.000002 0.000000 0.000002 6.140129 -0.310653 28.493893 0.740364 -0.636877 69.154402 -0.000000 -0.000000 -0.000000 1.519337 -7.265430 38.063019 0.606014 -0.275888 72.451874 -0.000000 -0.000000 0.000000 -10.670393 -12.435080 44.989595 0.613064 -0.144046 94.411581 0.000003 -0.000002 0.000002 0.000001 -0.000002 -0.000005 -0.000000 -0.000002 0.000003 -0.000000 -0.000002 0.000003 -0.000000 -0.000002 0.000003 -0.000000 -0.000002 0.000003 -0.000000 -0.000002 0.000003 0.000002 0.000000 0.000001 -0.000000 -0.000002 0.000003 -0.000000 -0.000002 0.000003 0.000002 0.000000 0.000001 -0.000001 -0.000001 0.000000 -0.000001 -0.000001 0.000000 0.000000 0.000000 -0.000000 
7.642984 54.793526 96.894302 29.576946 -56.239241 34.622584 0.000000 0.000000 0.000000 -62.818964 -44.160284 30.078207 87.274416 3.502925 -44.407930 -13.511568 -2.931058 -20.144837 -0.000000 -0.000002 0.000000 -0.000000 -0.000002 -0.000000 -0.000001 -0.000002 0.000002 -82.675171 23.859777 -20.720108 96.979062 6.762508 0.045325 -25.951217 -3.212579 17.811779 0.000000 0.000000 0.000000 0.000000 0.000000 0.000000 0.000001 -0.000000 -0.000002 33.200996 -2.442455 -15.695247 -1.446990 5.422988 -0.586295 2.406705 5.157382 0.405542 -12.821123 22.734737 -3.664003 -8.400039 19.486977 -13.749288 -0.000001 -0.000000 -0.000001 -0.000001 -0.000000 -0.000001 -0.000001 -0.000000 -0.000001 6.453785 -19.703330 -2.089422 -28.300103 14.446699 -31.890129 -38.149649 -78.327510 -28.795746 19.674937 -3.700270 4.619343 -2.352373 -7.781982 8.381880 5.316291 27.671584 0.918253 -0.000000 -0.000001 0.000001 13.458892 -1.821672 -6.718293 -0.137216 0.320256 -56.343733 -0.000003 -0.000002 -0.000000 8.555468 -0.661845 -20.239129 0.378558 0.774938 -58.160557 -0.000001 -0.000002 0.000001 6.216543 2.906161 -36.097283 0.177701 0.449720 -61.011532 -0.000001 0.000002 -0.000002 -5.670840 7.532243 -35.748513 0.365975 0.352539 -79.566923 -0.000000 0.000000 0.000002 -0.000002 0.000001 0.000005 -0.249761 27.328314 20.070164 -53.669577 -0.506378 18.926651 -36.260170 64.863834 33.429719 33.000284 2.782168 -14.695364 6.284337 -3.511802 -11.111015 7.496601 -24.599118 8.050756 0.000000 0.000001 -0.000002 13.724201 4.110455 16.230287 -0.393491 -0.386684 69.392448 0.000000 0.000000 0.000003 5.941716 -0.302105 30.420751 0.769532 -0.607602 72.144850 -0.000003 0.000000 0.000003 1.063175 -7.487656 39.592564 0.624322 -0.259763 74.705536 -0.000003 -0.000004 -0.000000 -11.394110 -13.005441 45.979204 0.622699 -0.124942 96.612910 -0.000002 0.000001 -0.000001 0.000003 0.000002 -0.000005 -0.000000 0.000001 -0.000000 -0.000000 0.000001 -0.000000 -0.000000 0.000001 -0.000000 -0.000000 0.000001 -0.000000 -0.000000 0.000001 -0.000001 0.000002 0.000000 -0.000002 -0.000000 0.000001 -0.000000 -0.000000 0.000001 -0.000001 0.000002 0.000000 -0.000002 -0.000001 0.000001 -0.000000 -0.000001 0.000001 -0.000000 0.000000 0.000000 0.000000 
